<?xml version="1.0" encoding="UTF-8" standalone="no"?>
<!-- Created with Inkscape (http://www.inkscape.org/) -->

<svg
   width="93.41291mm"
   height="90.154518mm"
   viewBox="0 0 93.41291 90.154518"
   version="1.1"
   id="svg5"
   xml:space="preserve"
   sodipodi:docname="drawing-1.svg"
   xmlns:inkscape="http://www.inkscape.org/namespaces/inkscape"
   xmlns:sodipodi="http://sodipodi.sourceforge.net/DTD/sodipodi-0.dtd"
   xmlns="http://www.w3.org/2000/svg"
   xmlns:svg="http://www.w3.org/2000/svg"><sodipodi:namedview
     id="namedview7"
     pagecolor="#ffffff"
     bordercolor="#000000"
     borderopacity="0.25"
     inkscape:showpageshadow="2"
     inkscape:pageopacity="0.0"
     inkscape:pagecheckerboard="0"
     inkscape:deskcolor="#d1d1d1"
     inkscape:document-units="mm"
     showgrid="false"
     inkscape:zoom="1.4324916"
     inkscape:cx="210.82148"
     inkscape:cy="270.5077"
     inkscape:window-width="1920"
     inkscape:window-height="991"
     inkscape:window-x="-9"
     inkscape:window-y="-9"
     inkscape:window-maximized="1"
     inkscape:current-layer="layer17" /><defs
     id="defs2" /><g
     inkscape:groupmode="layer"
     id="layer2"
     inkscape:label="desk"
     style="display:inline"
     transform="translate(-25.462309,-38.619433)"><path
       style="opacity:1;fill:#ffffff;fill-opacity:1;stroke:#000000;stroke-width:0.264583;stroke-opacity:1"
       d="M 25.581156,71.941231 57.165112,72.495335 98.729195,67.450452 80.087321,65.3832 Z"
       id="path3438"
       sodipodi:nodetypes="ccccc" /><path
       style="opacity:1;fill:#ffffff;fill-opacity:1;stroke:#000000;stroke-width:0.264583;stroke-opacity:1"
       d="m 57.903916,72.957088 0.09235,9.696829 40.635453,-7.971136 v -7.047627 z"
       id="path3494"
       sodipodi:nodetypes="ccccc" /><path
       style="opacity:1;fill:#ffffff;fill-opacity:1;stroke:#000000;stroke-width:0.264583;stroke-opacity:1"
       d="m 25.765858,72.218282 0.09235,9.604478 31.583954,0.831157 v -9.604478 z"
       id="path3496" /><path
       style="opacity:1;fill:#ffffff;fill-opacity:1;stroke:#000000;stroke-width:0.264583;stroke-opacity:1"
       d="m 25.765858,82.746267 -0.170779,41.492533 33.171685,4.34049 -1.29195,-44.979459 z"
       id="path3502"
       sodipodi:nodetypes="ccccc" /><path
       style="opacity:1;fill:#ffffff;fill-opacity:1;stroke:#000000;stroke-width:0.264583;stroke-opacity:1"
       d="m 58.007472,83.555978 1.221046,45.017712 15.390884,-6.76306 -1.44496,-41.223401 z"
       id="path3504"
       sodipodi:nodetypes="ccccc" /><path
       style="opacity:1;fill:#ffffff;fill-opacity:1;stroke:#000000;stroke-width:0.264583;stroke-opacity:1"
       d="m 73.250466,80.58723 24.76649,-0.910944 0.962726,-4.194036 z"
       id="path3506"
       sodipodi:nodetypes="cccc" /><path
       style="display:inline;opacity:1;fill:#ffffff;fill-opacity:1;stroke:#000000;stroke-width:0.264583;stroke-opacity:1"
       d="m 96.985231,80.397766 1.985298,28.116204 c -0.08969,0.38662 0.09411,0.76818 -1.110131,1.17543 l -23.716444,-1.02714 0.0653,1.37134 c 2.318202,0.28252 16.447655,0.56504 24.638832,0.84756 1.292594,-0.37149 1.455244,-1.2246 1.436644,-2.15496 L 98.023497,80.040247 Z"
       id="path3559"
       sodipodi:nodetypes="ccccccccc" /></g><g
     inkscape:groupmode="layer"
     id="layer16"
     inkscape:label="chair back"
     transform="translate(-25.462309,-38.619433)"><path
       style="display:inline;opacity:1;fill:#ffffff;fill-opacity:1;stroke:#000000;stroke-width:0.264583;stroke-opacity:1"
       d="m 87.342988,95.996673 0.330055,19.957107 -1.062846,0.11895 0.151191,-20.920393 22.888032,0.926166 1.61146,14.723367 0.53921,4.81546 -1.01457,-0.0688 -1.93221,-18.979704 z"
       id="path3586"
       sodipodi:nodetypes="cccccccccc" /></g><g
     inkscape:groupmode="layer"
     id="layer3"
     inkscape:label="chair"
     style="display:inline"
     transform="translate(-25.462309,-38.619433)"><path
       style="opacity:1;fill:#ffffff;fill-opacity:1;stroke:#000000;stroke-width:0.264583;stroke-opacity:1"
       d="m 83.718692,94.899728 29.167338,1.020031 -2.88447,-3.205042 -26.3093,-0.771537 z"
       id="path3568" /><path
       style="opacity:1;fill:#ffffff;fill-opacity:1;stroke:#000000;stroke-width:0.264583;stroke-opacity:1"
       d="m 83.663836,91.694379 26.175154,0.779754 -7.29427,-3.885818 -17.426889,-0.584636 z"
       id="path3572" /><path
       style="opacity:1;fill:#ffffff;fill-opacity:1;stroke:#000000;stroke-width:0.264583;stroke-opacity:1"
       d="m 105.47783,88.457004 5.25064,-28.333993 -2.02298,-0.414615 -5.23415,27.595374 z"
       id="path3574" /><path
       style="opacity:1;fill:#ffffff;fill-opacity:1;stroke:#000000;stroke-width:0.272159;stroke-opacity:1"
       d="m 109.57112,64.758636 4.37382,1.250731 -3.21623,20.062659 -3.67457,-1.833107 z"
       id="path3576"
       sodipodi:nodetypes="ccccc" /><path
       style="opacity:1;fill:#ffffff;fill-opacity:1;stroke:#000000;stroke-width:0.264583;stroke-opacity:1"
       d="m 84.629776,95.2431 0.50266,27.24885 1.642332,-0.4206 -0.0153,-8.09978 24.844932,-1.07882 1.05842,8.18837 1.77727,-0.61355 -1.87972,-24.078973 -2.74055,-0.12644 1.75861,14.866423 -24.849301,1.27468 -0.07259,-17.245589 z"
       id="path3580" /></g><g
     inkscape:groupmode="layer"
     id="layer4"
     inkscape:label="computer"
     style="display:inline"
     transform="translate(-25.462309,-38.619433)"><path
       style="opacity:1;fill:#ffffff;fill-opacity:1;stroke:#000000;stroke-width:0.264583;stroke-opacity:1"
       d="m 52.600632,53.482205 7.934171,14.790867 5.191498,-0.522415 -6.921994,-13.941943 z"
       id="path3589" /><path
       style="opacity:1;fill:#ffffff;fill-opacity:1;stroke:#000000;stroke-width:0.264583;stroke-opacity:1"
       d="m 60.763361,68.468977 5.387401,-0.71832 13.386876,0.685671 0.163256,0.848923 z"
       id="path3591" /><path
       style="opacity:1;fill:#ffffff;fill-opacity:1;stroke:#000000;stroke-width:0.264583;stroke-opacity:1"
       d="m 60.698059,68.566931 -0.03265,0.620366 18.937533,0.816274 v -0.555066 z"
       id="path3593" /><path
       style="opacity:1;fill:#ffffff;fill-opacity:1;stroke:#000000;stroke-width:0.264583;stroke-opacity:1"
       d="M 60.338898,68.403676 59.816483,68.632233 52.110867,53.97197 52.600632,53.514857"
       id="path3595" /></g><g
     inkscape:groupmode="layer"
     id="layer5"
     inkscape:label="comuter screen"
     style="display:inline"
     transform="translate(-25.462309,-38.619433)"><path
       style="display:inline;opacity:1;fill:#f5df4d;fill-opacity:1;stroke:#000000;stroke-width:0.264583;stroke-opacity:1"
       d="m 53.55687,54.213567 7.235611,13.525705 4.14922,-0.440308 -6.361958,-12.843316 z"
       id="path3598"
       sodipodi:nodetypes="ccccc" /></g><g
     inkscape:groupmode="layer"
     id="layer6"
     inkscape:label="valy-face"
     style="display:inline"
     transform="translate(-25.462309,-38.619433)"><path
       style="display:inline;opacity:1;fill:#ffffff;fill-opacity:1;stroke:#000000;stroke-width:0.264583;stroke-opacity:1"
       d="m 107.88432,53.039173 c -1.50066,0.793719 -2.62273,1.46952 -3.44348,1.16377 -0.90427,-0.336866 -0.4133,-0.947489 -1.06413,-1.959842 -1.41288,-2.197713 -1.25465,-4.371563 -1.25922,-5.706334 l 0.11208,-2.953459 1.92858,0.504883 1.23905,2.429352 1.20937,1.689701 0.22241,2.452864 z"
       id="path4255"
       sodipodi:nodetypes="cssccccccc" /></g><g
     inkscape:groupmode="layer"
     id="layer13"
     inkscape:label="valy-hand"
     style="display:inline"
     transform="translate(-25.462309,-38.619433)"><path
       style="display:inline;fill:#ffffff;fill-opacity:1;stroke:#000000;stroke-width:0.264583;stroke-opacity:1"
       d="m 71.187168,67.734332 c 0.253145,-0.154187 0.494523,-0.414279 0.767297,-0.391811 0.05804,0.186248 0.12254,0.361714 0.24488,0.440788 l 1.306038,-0.228555 2.236587,-0.604044 1.632545,-0.587716 -2.448816,-1.322361 c -1.647508,0.03816 -3.748909,1.283597 -3.738531,2.693699 z"
       id="path4963"
       sodipodi:nodetypes="cccccccc" /></g><g
     inkscape:groupmode="layer"
     id="layer9"
     inkscape:label="valy-arm2"
     style="display:inline"
     transform="translate(-25.462309,-38.619433)"><path
       style="opacity:1;fill:#ffffff;fill-opacity:1;stroke:#000000;stroke-width:0.264583;stroke-opacity:1"
       d="m 75.864409,66.452784 -1.599895,0.155091 -0.922388,0.399975 -0.693831,0.326508 c -0.716037,0.914616 -0.406659,0.776443 0.383654,0.799949 1.47876,-0.828283 3.268726,-0.13513 4.799685,0.08163 l 1.3795,0.07346 h 0.359162 l 12.665452,1.492388 c 0.527745,0.123431 1.447225,0.05757 2.275125,-0.171754 0.728745,-0.201857 1.381333,-0.540763 1.705809,-0.843766 2.872077,-2.889138 10.672748,-7.720332 10.715028,-10.680281 -0.50156,-1.400877 -1.64548,-1.700562 -3.00389,-1.632545 -4.377653,1.896161 -7.326154,5.531936 -10.650872,8.825436 -0.213962,0.277277 -0.351576,0.319876 -0.677206,0.351186 l -13.225402,1.271673 -0.408138,-0.03265 -2.742676,-2.301889 c -0.980686,-0.307607 -2.042076,0.0392 -2.922257,0.09795 -0.410734,0.309151 -0.771509,0.674576 -1.142699,1.028588 -0.651867,0.488831 -1.292785,1.064927 -0.571476,1.175351 0.413992,-0.313487 0.703456,-0.696342 1.646783,-1.301897 0.148306,-0.0952 0.957977,-0.315522 0.92856,-0.281672 -0.469876,0.161125 -0.95018,0.302883 -1.346852,0.599959 l -0.478799,0.375606 -0.62725,0.579435 c 0.123691,-0.0017 0.296541,0.07478 0.438756,0.03292 0.734204,-0.306494 1.492912,-0.968871 2.163653,-1.069768 0.454046,-0.05655 1.015543,0.184227 1.552464,0.649122 z"
       id="path4959"
       sodipodi:nodetypes="cccccccccscccccccccccscccccccc" /></g><g
     inkscape:groupmode="layer"
     id="layer10"
     inkscape:label="valy-body"
     style="display:inline"
     transform="translate(-25.462309,-38.619433)"><path
       style="opacity:1;fill:#ffffff;fill-opacity:1;stroke:#000000;stroke-width:0.264583;stroke-opacity:1"
       d="m 103.92298,58.770365 c -1.4041,1.928138 -3.50021,3.345276 -4.593793,5.598095 -1.098959,2.767857 2.341913,6.703099 0.844073,9.282816 l 2.29139,4.946911 2.11907,4.38883 -0.0844,3.785438 1.95083,4.685287 c 1.40428,-0.356278 2.25261,-1.740806 2.99781,-2.91219 2.23662,-7.954492 0.94179,-12.775955 3.99649,-21.803431 l 1.6214,-6.429999 c 1.02004,-3.232295 -0.11786,-4.575275 -1.26343,-5.478228 -6.81602,-0.622442 -8.40645,0.597999 -9.87941,3.936471 z"
       id="path4706"
       sodipodi:nodetypes="cccccccccccc" /></g><g
     inkscape:groupmode="layer"
     id="layer11"
     inkscape:label="valy-leg1"
     style="display:inline"
     transform="translate(-25.462309,-38.619433)"><path
       style="opacity:1;fill:#ffffff;fill-opacity:1;stroke:#000000;stroke-width:0.264583;stroke-opacity:1"
       d="m 86.056806,60.038774 c -0.77916,-0.0044 -1.506839,-0.06886 -2.20584,0.233046 -1.461043,0.478853 -0.74264,0.07709 -1.329514,1.019817 -1.341471,2.154891 -1.364471,5.683037 -1.375553,6.777226 1.008089,3.069565 -0.561212,14.17307 -0.116021,17.261007 0.06442,0.446827 0.554626,0.821723 0.698536,0.879563 0.0043,0.163235 -0.268153,1.09743 -0.263213,1.231279 l -1.838656,3.746314 c -0.384504,1.715734 -1.402892,3.814966 -1.392129,5.539516 0.765472,0.304012 1.455087,0.906223 2.490792,0.147927 l 2.823371,-2.338746 0.19117,-4.429673 0.79422,-2.476377 -0.781528,-2.234399 1.584664,-8.924908 1.264435,-6.992199 1.322625,6.671121 -0.08237,3.693112 c 0.705239,1.994393 0.917158,4.173463 2.176405,5.960459 0.716751,1.190438 1.563274,2.040519 2.617786,2.737223 1.118932,0.687557 2.873959,1.198968 4.376577,1.101688 l 4.540437,-3.304522 0.10296,-4.616389 -2.943519,-8.841154 -4.755405,-6.295102 C 91.10597,64.642749 87.86334,60.613621 86.056755,60.038774 Z"
       id="path4715"
       sodipodi:nodetypes="ccscscccccccccccccccccccccc" /></g><g
     inkscape:groupmode="layer"
     id="layer12"
     inkscape:label="valy-leg2"
     style="display:inline;fill:#00ff00"
     transform="translate(-25.462309,-38.619433)"><path
       style="display:inline;opacity:1;fill:#ffffff;fill-opacity:1;stroke:#000000;stroke-width:0.264583;stroke-opacity:1"
       d="m 103.50694,80.768443 c -1.29457,-3.630966 -3.106,-7.011049 -4.861843,-10.429957 -2.026596,-3.792546 -4.14824,-9.277721 -8.324154,-10.532077 -2.47744,-0.595513 -4.913562,1.038993 -5.077876,3.592739 0.130464,7.936105 -1.153625,14.189042 -1.828554,20.503829 -0.01858,0.209771 0.533547,0.724823 0.514566,0.93939 -0.665763,1.654718 -2.871593,4.35017 -3.595233,5.935313 -1.157558,1.677709 -2.512128,2.512372 -3.039037,4.778156 0.700691,0.709261 2.40846,0.194182 3.130079,-0.03485 l 1.438579,-1.309256 2.458279,-2.805076 c 2.052123,-0.178984 3.191307,-0.74414 3.923593,-1.23974 0.664798,-0.785475 0.327019,-1.383319 0.11084,-2.322719 -0.387619,-1.291294 -0.817013,-1.692247 -0.590967,-2.385725 0.05132,-0.157429 0.482725,-0.410741 0.609755,-0.61216 0.508073,-1.243768 0.745207,-2.47709 1.252608,-3.755613 1.170409,-3.397895 2.949982,-6.491839 3.046794,-9.800554 0.154515,-2.247114 -0.4966,-3.882492 -1.321855,-5.964493 1.636376,3.197601 2.07699,6.695094 0.959415,9.789921 -0.464859,1.222016 -0.920999,2.112497 -1.38929,3.271373 0.389451,2.899222 1.866503,5.398454 3.241094,7.924054 0.518525,0.740959 0.88894,1.403687 1.977672,2.445826 1.076872,1.173525 2.335999,1.95454 3.732921,2.438787 1.321474,0.439904 2.625054,0.58616 3.914654,0.50299 0.94718,-0.07387 1.91396,-0.106211 2.82321,-0.26034 -0.44334,-2.426337 -0.0426,-5.204337 -0.48104,-7.63156 z"
       id="path4782"
       sodipodi:nodetypes="cccccccccccccsccccccccccccc" /><path
       style="opacity:1;fill:#000000;fill-opacity:1;stroke:#000000;stroke-width:0.264583;stroke-opacity:1"
       d="m 83.945513,85.055644 c 3.5916,0.848924 3.754855,0.424462 3.754855,0.424462 l 0.146931,-0.130603 c -1.064435,0.131946 -2.657558,-0.396968 -4.032391,-0.653018 z"
       id="path5159"
       sodipodi:nodetypes="ccccc" /><path
       style="opacity:1;fill:#000000;fill-opacity:1;stroke:#000000;stroke-width:0.264583;stroke-opacity:1"
       d="m 81.535625,86.701996 1.486098,-0.724884 0.872013,-1.02174 -0.46059,0.403211 c -0.881153,0.104255 -1.251082,0.550041 -1.930166,1.069019 z"
       id="path5161"
       sodipodi:nodetypes="cccccc" /></g><g
     inkscape:groupmode="layer"
     id="layer7"
     inkscape:label="valyhair"
     style="display:inline"
     transform="translate(-25.462309,-38.619433)"><path
       style="opacity:1;fill:#ffffff;fill-opacity:1;stroke:#000000;stroke-width:0.264583;stroke-opacity:1"
       d="m 99.963342,43.717508 0.745658,1.771734 1.98282,2.215005 c 1.02799,1.129265 2.08155,2.519299 2.66991,3.515068 0.95843,1.622071 -0.9022,4.50533 0.73523,5.398018 2.00593,0.406548 4.92099,-1.879534 6.01184,-0.430002 2.64858,2.276889 -0.51984,4.993729 -0.72739,7.95865 2.85511,6.77316 3.80605,-2.401935 4.64039,-3.939723 0.23584,-0.379489 1.05577,1.36523 1.06046,1.757065 0.0114,0.952286 -0.33303,3.567662 -0.12396,3.293012 0.16686,-0.219165 1.18856,-0.71581 1.43771,-1.605772 1.12384,-5.095931 -0.67665,-10.311748 -2.6756,-14.407098 -1.47743,-3.04045 -1.58906,-6.007039 -3.4465,-8.715406 -5.15781,-3.150188 -9.78004,-2.124564 -12.310598,3.189449 z"
       id="path4468"
       sodipodi:nodetypes="cccsccccssccccc" /></g><g
     inkscape:groupmode="layer"
     id="layer8"
     inkscape:label="valy-arm"
     style="display:inline;fill:#ffffff;fill-opacity:1;stroke:#000000;stroke-opacity:1"
     transform="translate(-25.462309,-38.619433)"><path
       style="opacity:1;fill:#ffffff;fill-opacity:1;stroke:#000000;stroke-width:0.264583;stroke-opacity:1"
       d="m 109.43785,63.008241 c 1.83965,-0.928975 3.00746,-1.866864 3.17284,-3.371038 0.19244,-1.750136 -0.97748,-3.242563 -2.18447,-3.919328 -5.17842,-0.369446 -9.67528,2.039221 -15.353956,1.634705 3.380591,-2.38941 7.109116,-8.857671 7.752186,-9.863554 0.13711,-1.401489 -1.95887,-3.299276 -2.8139,-4.173009 -1.274467,-0.524737 -2.606477,-0.782945 -3.948473,-1.057991 l -1.846557,-0.04118 -0.369312,-0.0082 c 0.402566,0.671118 1.343528,0.433142 2.017826,0.645435 -0.613367,0.530624 -0.813471,0.857811 -1.191164,1.636161 -0.15694,0.06549 -0.272083,0.183473 -0.376515,0.314908 0.181549,0.401249 0.448689,0.65029 0.719057,0.89359 0.653897,0.295657 1.346889,0.527555 2.06502,0.600299 0.60478,0.806475 1.862634,0.936107 2.655885,1.029159 l -10.39159,9.961995 c -0.230019,0.656881 -0.469733,1.313546 0.14038,1.989166 5.963027,3.20272 13.710793,3.991007 19.952743,3.728924 z"
       id="path4529"
       sodipodi:nodetypes="cscccccccccccccccc" /></g><g
     inkscape:groupmode="layer"
     id="layer14"
     inkscape:label="chair-front"
     style="display:inline"
     transform="translate(-25.462309,-38.619433)"><path
       style="display:inline;opacity:1;fill:#ffffff;fill-opacity:1;stroke:#000000;stroke-width:0.264583;stroke-opacity:1"
       d="m 112.88809,95.827432 4.76909,-35.734632 -2.29584,-0.605451 -5.0725,32.771908 z"
       id="path3570" /></g></svg>
